<?xml version="1.0" encoding="UTF-8" standalone="no"?>
<svg
   xmlns:dc="http://purl.org/dc/elements/1.1/"
   xmlns:cc="http://creativecommons.org/ns#"
   xmlns:rdf="http://www.w3.org/1999/02/22-rdf-syntax-ns#"
   xmlns:svg="http://www.w3.org/2000/svg"
   xmlns="http://www.w3.org/2000/svg"
   xmlns:sodipodi="http://sodipodi.sourceforge.net/DTD/sodipodi-0.dtd"
   xmlns:inkscape="http://www.inkscape.org/namespaces/inkscape"
   version="1.1"
   id="Capa_1"
   x="0px"
   y="0px"
   viewBox="0 0 414.391 414.391"
   style="enable-background:new 0 0 414.391 414.391;"
   xml:space="preserve"
   sodipodi:docname="AJ-Wi.svg"
   inkscape:version="1.0.2 (1.0.2+r75+1)"><metadata
   id="metadata47"><rdf:RDF><cc:Work
       rdf:about=""><dc:format>image/svg+xml</dc:format><dc:type
         rdf:resource="http://purl.org/dc/dcmitype/StillImage" /><dc:title /></cc:Work></rdf:RDF></metadata><defs
   id="defs45" /><sodipodi:namedview
   pagecolor="#ffffff"
   bordercolor="#666666"
   borderopacity="1"
   objecttolerance="10"
   gridtolerance="10"
   guidetolerance="10"
   inkscape:pageopacity="0"
   inkscape:pageshadow="2"
   inkscape:window-width="1024"
   inkscape:window-height="715"
   id="namedview43"
   showgrid="false"
   inkscape:zoom="1.2804262"
   inkscape:cx="244.40918"
   inkscape:cy="176.46512"
   inkscape:window-x="0"
   inkscape:window-y="0"
   inkscape:window-maximized="1"
   inkscape:current-layer="g10"
   inkscape:document-rotation="0" />
<g
   id="g10"
   style="display:inline">
	<circle
   style="display:inline;fill:#00000c;fill-opacity:1;stroke:none;stroke-width:8.80323;stroke-linecap:round"
   id="path837"
   cx="207.1955"
   cy="207.10957"
   r="129.70319" /><path
   d="m 349.895,132.68607 -37.057,-0.045 c -211.317,0.043 0,0 -211.317,0.043 H 64.496 C 28.933,132.68507 0,161.61607 0,197.17807 v 19.899 c 0,35.542 28.933,64.457 64.496,64.457 h 37.023 c 211.277,0.101 0,0 211.277,0.101 l 37.099,-0.101 c 35.564,0 64.496,-28.931 64.496,-64.492 v -19.899 c 0,-35.542 -28.933,-64.457 -64.496,-64.457 z m 48.496,84.357 c 0,26.738 -21.755,48.492 -48.496,48.492 l -115.051,0.107 c -9.561,0 -58.6678,1.1774 -66.6508,1.1384 4.958,-5.177 26.20231,-19.46319 31.98745,-34.80849 l 14.39781,-38.19069 c 9.2473,-24.52879 23.61854,-45.13922 49.84354,-45.13922 l 85.473,0.045 c 26.741,0 48.496,21.737 48.496,48.457 z"
   id="path2"
   sodipodi:nodetypes="ccccssscccsscscccssccss"
   style="display:inline;fill:#4d4d4d;fill-opacity:1" />
	
	
	
<path
   d="m 398.391,217.04307 c 0,26.738 -21.755,48.492 -48.496,48.492 l -115.051,0.107 c -9.561,0 -58.6678,1.1774 -66.6508,1.1384 4.958,-5.177 26.20231,-19.46319 31.98745,-34.80849 l 14.39781,-38.19069 c 9.2473,-24.52879 23.61854,-45.13922 49.84354,-45.13922 l 85.473,0.045 c 26.741,0 48.496,21.737 48.496,48.457 z"
   id="path838"
   sodipodi:nodetypes="scccssccss"
   style="display:inline;fill:#ffffff;fill-opacity:1" /><path
   style="display:inline;fill:#000000;stroke-width:0.170643"
   d="m 299.74364,258.9352 c -2.65807,-0.33025 -4.89702,-1.69954 -6.38461,-3.90466 -1.11872,-1.65832 -2.72207,-5.95541 -6.97432,-18.69162 -2.71132,-8.12086 -6.68558,-20.52676 -6.68558,-20.86942 0,-0.39396 -0.30524,-0.20116 -0.41826,0.26419 -0.12645,0.52064 -0.93264,3.13285 -2.59373,8.4042 -0.60629,1.92401 -1.48713,4.72684 -1.95741,6.2285 -3.54653,11.32439 -7.34062,22.52732 -8.09083,23.89011 -1.08777,1.97593 -3.07203,3.49532 -5.36928,4.11132 -1.34705,0.36122 -3.96886,0.40131 -5.28995,0.0809 -3.00191,-0.72806 -5.6705,-2.85404 -7.07971,-5.64018 -0.21432,-0.42373 -1.08219,-2.76693 -1.92861,-5.20714 -2.39586,-6.90726 -5.12906,-15.15884 -13.56545,-40.95447 -0.98223,-3.00332 -1.75248,-5.51819 -1.71168,-5.58857 0.0409,-0.0704 2.98287,-0.12799 6.53793,-0.12799 h 6.46373 l 0.85046,2.68764 c 0.46776,1.4782 1.17074,3.72429 1.56217,4.99132 0.39144,1.26702 1.1589,3.7243 1.70547,5.4606 0.54657,1.7363 2.57998,8.26342 4.51869,14.5047 1.93871,6.2413 3.82652,12.28521 4.19514,13.43093 0.36862,1.14571 0.67022,2.20157 0.67022,2.34635 0,0.31469 0.32408,0.3534 0.41804,0.0499 0.37376,-1.20724 6.45684,-19.70743 8.89995,-27.06699 3.49316,-10.52273 3.88158,-11.42751 5.78397,-13.47322 2.10863,-2.26748 4.19197,-3.27253 6.78351,-3.27253 3.61937,0 6.73925,2.31042 8.87143,6.56976 1.64381,3.28377 5.83501,15.99797 9.08471,27.55895 1.73925,6.18746 2.4387,8.73774 2.56239,9.34274 0.0624,0.30503 0.17178,0.55459 0.24315,0.55459 0.0714,0 0.65103,-1.4398 1.28812,-3.19957 1.25558,-3.46816 1.85857,-5.11409 3.07884,-8.4042 0.43512,-1.17317 1.04225,-2.82414 1.34918,-3.66883 0.67697,-1.8631 4.37513,-11.90631 7.00612,-19.02677 1.0577,-2.86255 2.2607,-6.12611 2.67333,-7.25235 l 0.75022,-2.04772 6.20301,-0.0449 6.20302,-0.0449 -0.0848,0.3861 c -0.0467,0.21235 -0.50797,1.57633 -1.02517,3.03107 -0.51722,1.45474 -2.59591,7.32915 -4.61933,13.05424 -2.02343,5.72509 -3.9981,11.29234 -4.38817,12.37166 -0.39007,1.07933 -1.00164,2.80709 -1.35904,3.83948 -1.22912,3.55042 -5.07144,14.16683 -6.05247,16.72307 -0.55908,1.4568 -1.30818,3.05328 -1.73862,3.70534 -2.23014,3.37833 -6.48133,5.38329 -10.38577,4.89817 z m 38.52824,-21.78573 0.0434,-21.28779 6.35647,-0.0447 6.35647,-0.0447 v 21.33252 21.33253 h -6.3998 -6.39979 z m 4.55332,-26.55511 c -1.0916,-0.29433 -2.24891,-1.0106 -3.14673,-1.94757 -0.88564,-0.92424 -1.36428,-1.85937 -1.74837,-3.41583 -0.70721,-2.86579 0.97843,-6.25577 3.79798,-7.63811 0.96021,-0.47076 1.15117,-0.50197 3.07158,-0.50197 1.92169,0 2.10463,0.0299 2.97215,0.48661 2.65485,1.3975 4.10948,3.96729 3.88981,6.87188 -0.15957,2.10991 -1.32871,4.08513 -3.16612,5.34903 -1.34203,0.92314 -3.87822,1.27916 -5.6703,0.79596 z m 12.24802,-17.23791 c -0.3562,-0.13244 -1.04883,-0.62024 -1.5392,-1.084 -2.0537,-1.9423 -4.65352,-3.22036 -7.40889,-3.64216 -3.34971,-0.51278 -7.65365,0.93666 -10.4703,3.52609 -1.11184,1.02215 -2.02189,1.36026 -3.2194,1.19612 -1.09846,-0.15056 -1.93345,-0.77136 -2.46078,-1.82958 -0.55166,-1.10704 -0.56004,-1.69616 -0.0397,-2.79358 0.95123,-2.00622 5.03967,-4.77454 8.80616,-5.96272 6.75981,-2.13248 13.51719,-0.60112 19.13741,4.33693 1.28274,1.12705 1.745,2.08741 1.64828,3.42443 -0.0811,1.12105 -0.64819,2.02513 -1.63186,2.60152 -0.71255,0.41753 -2.02514,0.5231 -2.82171,0.22695 z m 10.54497,-9.77887 c -0.28156,-0.15112 -1.12625,-0.85209 -1.87708,-1.5577 -6.8455,-6.43328 -15.81887,-9.00328 -24.48737,-7.01323 -4.71738,1.08299 -10.51409,4.15733 -13.32763,7.06843 -0.85867,0.88845 -2.19707,1.62071 -2.95968,1.61932 -2.00401,-0.003 -3.67815,-1.6744 -3.67537,-3.66789 10e-4,-0.81059 0.73682,-2.15071 1.64074,-2.9888 4.57565,-4.24238 10.79324,-7.55945 16.62728,-8.87062 9.58236,-2.1536 19.1486,-0.17883 27.2912,5.63375 1.76671,1.26116 4.18445,3.38695 4.95529,4.35692 1.40209,1.76431 0.95945,4.23725 -0.95226,5.32004 -0.82859,0.46931 -2.45325,0.51941 -3.23512,0.0998 z m 12.19105,-8.56746 c -0.8687,-0.28102 -1.29696,-0.59853 -2.89098,-2.14335 -6.83889,-6.62787 -15.74854,-10.90259 -25.08013,-12.03312 -2.14087,-0.25936 -7.02751,-0.21414 -9.31899,0.0863 -9.22082,1.20874 -17.8084,5.13026 -24.69872,11.27866 -2.76819,2.47011 -2.57223,2.34464 -3.78217,2.42168 -1.44407,0.092 -2.42046,-0.35791 -3.14239,-1.44783 -1.11745,-1.68704 -0.87813,-3.13253 0.8092,-4.88743 1.34949,-1.40354 4.68558,-4.12135 6.82332,-5.55877 10.02195,-6.73874 21.90749,-10.00918 32.70802,-8.99997 6.645,0.62091 12.20608,2.21084 18.0029,5.14711 4.93717,2.50084 9.25624,5.57875 12.90967,9.19988 1.3571,1.34509 1.59835,1.67358 1.84018,2.50542 0.3321,1.14239 0.19038,2.03445 -0.4855,3.05575 -0.71707,1.08355 -2.521,1.7553 -3.69441,1.37572 z"
   id="path17"
   sodipodi:nodetypes="csssssssscssscscsssssscssssssssssssccccsssssccccccccccccssssscssssssssscssssssccsscssssssccssscscsscsssssss" /><g
   aria-label="AJ"
   id="text58"
   style="font-size:108.397px;line-height:1.25;font-family:Airstrike;-inkscape-font-specification:Airstrike;letter-spacing:0px;display:inline;stroke-width:2.70995"
   transform="matrix(1.1542606,0,0,1.1542606,-23.145323,-38.576912)"><path
     d="m 113.4694,235.91971 -7.1542,-46.50232 q -0.32519,-1.30076 -0.86718,-3.14351 -0.43358,-1.95115 -1.08397,-3.6855 -0.65038,-1.73435 -1.62595,-2.92672 -0.86718,-1.19236 -1.95115,-1.19236 H 82.576256 q -0.758779,0 -1.951146,0.86717 -1.08397,0.75878 -2.276337,1.84275 -1.08397,0.97557 -2.059543,2.05954 -0.975573,1.08397 -1.300764,1.73436 l -39.022921,49.86262 v 0.32519 q 0,-0.1084 -0.216794,0.75878 h 45.851932 q 0.758779,-0.32519 2.384734,-2.05954 1.625955,-1.73436 3.25191,-3.7939 1.734352,-2.05954 3.035116,-3.90229 1.409161,-1.84275 1.625955,-2.49313 l 2.276337,12.24886 z m -43.575593,-15.60917 18.210696,-24.38933 3.793895,25.4733 H 69.893807 Z"
     style="fill:#ffffff;stroke-width:2.70995"
     id="path11" /><path
     d="m 151.19147,235.91971 h 3.14351 q 6.93741,0 11.59848,-1.84275 4.76947,-1.95115 8.12977,-5.52825 3.36031,-3.6855 5.85344,-8.99695 2.49313,-5.41985 4.98626,-12.35726 l 10.51451,-28.7252 h -20.59543 l -11.70687,32.19391 q -0.75878,1.51755 -2.05955,3.3603 -1.19236,1.84275 -2.81832,3.46871 -1.51756,1.62595 -3.4687,2.70992 -1.95115,1.08397 -4.01069,1.08397 h -21.8962 q -3.4687,3.46871 -6.07023,7.15421 -2.60153,3.68549 -4.87786,7.47939 z"
     style="fill:#ffffff;stroke-width:2.70995"
     id="path13" /></g></g>















</svg>
